<svg width="16" height="16" viewBox="0 0 16 16" fill="none" xmlns="http://www.w3.org/2000/svg">
<path fill-rule="evenodd" clip-rule="evenodd" d="M7.22673 0L8.792 0.000924218C8.8513 0.00374283 8.92056 0.0115653 8.99597 0.0279849L9.16912 0.0709722C9.5713 0.187707 9.76062 0.398301 10.1292 1.25077L10.2871 1.62729L10.451 2.03345L10.8342 1.86293C11.5976 1.5299 11.9434 1.42718 12.2162 1.42718C12.4976 1.42718 12.7823 1.52607 13.0015 1.69975L13.1053 1.79271L14.162 2.84498L14.3131 3.00911C14.5965 3.34082 14.6592 3.6034 14.4605 4.23104L14.3501 4.54822L14.2017 4.92673L13.9559 5.51329L14.5451 5.73561C15.4648 6.09429 15.7359 6.28039 15.8846 6.65252L15.9112 6.72456L15.9589 6.88382C15.983 6.97411 15.9932 7.03819 15.9974 7.10962L16 7.22647V8.71026C16 8.83386 15.9957 8.90551 15.9638 9.03326C15.8364 9.54489 15.6948 9.7264 14.7372 10.1393L14.5479 10.2196L13.9705 10.4545L14.1501 10.8493C14.699 12.0756 14.7553 12.4343 14.4201 12.8678L14.3669 12.9335L14.2432 13.0712L13.1562 14.1575C12.9192 14.3971 12.5856 14.5274 12.2606 14.5274C12.0898 14.5274 11.8749 14.4815 11.5706 14.3792L11.4107 14.3234L11.0414 14.1822L10.4851 13.9527L10.3291 14.3681C9.91643 15.4488 9.73306 15.738 9.33148 15.8915L9.25825 15.9173L9.10428 15.9615C9.01692 15.9841 8.95504 15.9937 8.88616 15.9975L8.77353 16L7.20804 15.9991C7.14892 15.9963 7.0799 15.9885 7.00474 15.9722C6.54231 15.872 6.34049 15.7504 6.01586 15.071L5.94428 14.9167L5.78648 14.5521L5.548 13.9666L5.16457 14.1371C4.40086 14.47 4.05525 14.5726 3.78293 14.5726C3.50495 14.5726 3.22404 14.4758 2.99889 14.3004L2.89124 14.2062L1.80292 13.1181C1.39492 12.6856 1.29446 12.454 1.58402 11.6276L1.64716 11.4541L1.79474 11.0796L2.04309 10.488L1.63394 10.3344C0.568051 9.92715 0.271154 9.74063 0.113849 9.34381L0.0874097 9.27151L0.0401515 9.11171C0.0166218 9.0224 0.00661994 8.95904 0.00256643 8.88837L0 8.77275L0 7.28807C0 7.16346 0.00443351 7.09116 0.0368812 6.96228C0.148717 6.51808 0.270137 6.32367 0.931117 6.00948L1.09347 5.93468L1.45277 5.7802L2.02991 5.54625L1.85081 5.15004C1.24863 3.79456 1.24293 3.47232 1.72774 2.95938L1.79688 2.88814L2.84611 1.84129C3.08115 1.60495 3.41329 1.47332 3.73894 1.47332C3.93873 1.47332 4.19675 1.53525 4.59065 1.67775L4.768 1.7438L5.12861 1.88661L5.51564 2.04737L5.74446 1.4443C6.11371 0.503871 6.30627 0.232399 6.69908 0.0945415L6.77516 0.0701282L6.93507 0.0294664C7.01225 0.0121879 7.06675 0.00485123 7.12744 0.00187994L8.792 0.000924218L7.22673 0ZM8.26536 2L7.68478 2L7.59598 2.21539L7.49017 2.4849L7.19618 3.26965C7.11261 3.49033 6.95422 3.67311 6.75061 3.78744L6.64518 3.83875L6.00809 4.10386C5.80128 4.18992 5.57287 4.20358 5.35928 4.14497L5.23321 4.10113L4.57075 3.82099L4.24104 3.68718L3.94281 3.57228L3.5309 3.98326L3.73485 4.45907L4.0825 5.22097C4.17926 5.43127 4.19949 5.66722 4.14237 5.88868L4.09881 6.01951L3.8383 6.65256C3.74962 6.86805 3.58902 7.04463 3.38569 7.15353L3.28061 7.2022L2.48631 7.52093L2.215 7.63473L2 7.7291V8.32114L2.1007 8.36322L2.48192 8.51419L3.25883 8.80363C3.48612 8.88557 3.67472 9.04646 3.79169 9.25483L3.84406 9.36283L4.1046 9.99402C4.19063 10.2024 4.20322 10.4324 4.14273 10.647L4.09767 10.7735L3.76187 11.5636L3.56652 12.054L3.97824 12.4652L4.23658 12.358L4.73453 12.1392L5.20477 11.9233C5.42382 11.8187 5.6721 11.7978 5.90343 11.8621L6.01747 11.9013L6.6583 12.1659C6.8767 12.256 7.05489 12.42 7.16311 12.6273L7.21125 12.7344L7.5246 13.5138L7.7339 14H8.31683L8.40501 13.7852L8.51029 13.5164L8.80362 12.732C8.88713 12.5094 9.04671 12.325 9.25209 12.2103L9.35845 12.1588L9.99657 11.8955C10.201 11.8112 10.4263 11.7974 10.6375 11.8541L10.7623 11.8967L11.2451 12.1021L11.7597 12.3135L12.0574 12.4284L12.47 12.0166L12.4286 11.9165L12.1971 11.3887L11.917 10.7794C11.8199 10.5687 11.7996 10.3323 11.857 10.1104L11.9007 9.97934L12.1608 9.34903C12.249 9.1352 12.4081 8.95972 12.6095 8.8508L12.7136 8.80202L13.5124 8.48006L14 8.27052V7.67935L13.8992 7.63741L13.5173 7.48681L12.7378 7.19724C12.511 7.11473 12.323 6.95356 12.2066 6.74517L12.1546 6.63719L11.8945 6.00344C11.8092 5.79556 11.7968 5.56631 11.8571 5.35247L11.902 5.22631L12.2372 4.43685L12.4323 3.94503L12.0203 3.53474L11.8981 3.58478L11.4412 3.78197L10.7801 4.08244C10.5701 4.17864 10.3348 4.19865 10.1138 4.14168L9.9833 4.09825L9.34288 3.835C9.12734 3.7464 8.95069 3.58585 8.84171 3.38255L8.793 3.27747L8.53933 2.64409L8.36029 2.21528L8.26536 2ZM8.00031 6C9.10285 6 10 6.89682 10 7.99942C10 9.10199 9.10288 10 8.00031 10C6.89731 10 6 9.10218 6 7.99942C6 6.89663 6.89734 6 8.00031 6Z" fill="currentColor"/>
</svg>
