<svg width="85" height="28" viewBox="0 0 85 28" fill="none" xmlns="http://www.w3.org/2000/svg">
<rect width="85" height="28" rx="5" fill="#C9C9C9"/>
<path d="M12.464 15.682C12.464 16.018 12.5247 16.3027 12.646 16.536C12.7673 16.7693 12.926 16.9607 13.122 17.11C13.3273 17.25 13.5653 17.3573 13.836 17.432C14.1067 17.4973 14.3867 17.53 14.676 17.53C14.872 17.53 15.082 17.516 15.306 17.488C15.53 17.4507 15.74 17.3853 15.936 17.292C16.132 17.1987 16.2953 17.0727 16.426 16.914C16.5567 16.746 16.622 16.536 16.622 16.284C16.622 16.0133 16.5333 15.794 16.356 15.626C16.188 15.458 15.964 15.318 15.684 15.206C15.404 15.094 15.0867 14.996 14.732 14.912C14.3773 14.828 14.018 14.7347 13.654 14.632C13.2807 14.5387 12.9167 14.4267 12.562 14.296C12.2073 14.156 11.89 13.9787 11.61 13.764C11.33 13.5493 11.1013 13.2833 10.924 12.966C10.756 12.6393 10.672 12.2473 10.672 11.79C10.672 11.2767 10.7793 10.8333 10.994 10.46C11.218 10.0773 11.5073 9.76 11.862 9.508C12.2167 9.256 12.618 9.06933 13.066 8.948C13.514 8.82667 13.962 8.766 14.41 8.766C14.9327 8.766 15.432 8.82667 15.908 8.948C16.3933 9.06 16.8227 9.24667 17.196 9.508C17.5693 9.76933 17.8633 10.1053 18.078 10.516C18.302 10.9173 18.414 11.4073 18.414 11.986H16.286C16.2673 11.6873 16.202 11.44 16.09 11.244C15.9873 11.048 15.8473 10.894 15.67 10.782C15.4927 10.67 15.2873 10.5907 15.054 10.544C14.83 10.4973 14.5827 10.474 14.312 10.474C14.1347 10.474 13.9573 10.4927 13.78 10.53C13.6027 10.5673 13.4393 10.6327 13.29 10.726C13.15 10.8193 13.0333 10.936 12.94 11.076C12.8467 11.216 12.8 11.3933 12.8 11.608C12.8 11.804 12.8373 11.9627 12.912 12.084C12.9867 12.2053 13.1313 12.3173 13.346 12.42C13.57 12.5227 13.8733 12.6253 14.256 12.728C14.648 12.8307 15.1567 12.9613 15.782 13.12C15.9687 13.1573 16.2253 13.2273 16.552 13.33C16.888 13.4233 17.2193 13.5773 17.546 13.792C17.8727 14.0067 18.1527 14.296 18.386 14.66C18.6287 15.0147 18.75 15.472 18.75 16.032C18.75 16.4893 18.6613 16.914 18.484 17.306C18.3067 17.698 18.0407 18.0387 17.686 18.328C17.3407 18.608 16.9067 18.8273 16.384 18.986C15.8707 19.1447 15.2733 19.224 14.592 19.224C14.0413 19.224 13.5047 19.154 12.982 19.014C12.4687 18.8833 12.0113 18.6733 11.61 18.384C11.218 18.0947 10.9053 17.726 10.672 17.278C10.4387 16.83 10.3267 16.298 10.336 15.682H12.464ZM22.7178 15.108L19.0498 9.004H21.5138L23.8518 12.952L26.1758 9.004H28.6258L24.9158 15.164V19H22.7178V15.108ZM29.5357 9.004H31.7197L35.8917 15.71H35.9197V9.004H37.9777V19H35.7797L31.6217 12.308H31.5937V19H29.5357V9.004ZM46.6466 12.364C46.6093 12.112 46.5253 11.8833 46.3946 11.678C46.264 11.4633 46.1006 11.2767 45.9046 11.118C45.7086 10.9593 45.4846 10.838 45.2326 10.754C44.99 10.6607 44.7333 10.614 44.4626 10.614C43.968 10.614 43.548 10.712 43.2026 10.908C42.8573 11.0947 42.5773 11.3513 42.3626 11.678C42.148 11.9953 41.9893 12.3593 41.8866 12.77C41.7933 13.1807 41.7466 13.6053 41.7466 14.044C41.7466 14.464 41.7933 14.8747 41.8866 15.276C41.9893 15.668 42.148 16.0227 42.3626 16.34C42.5773 16.6573 42.8573 16.914 43.2026 17.11C43.548 17.2967 43.968 17.39 44.4626 17.39C45.1346 17.39 45.6573 17.1847 46.0306 16.774C46.4133 16.3633 46.6466 15.822 46.7306 15.15H48.8586C48.8026 15.7753 48.658 16.34 48.4246 16.844C48.1913 17.348 47.8833 17.7773 47.5006 18.132C47.118 18.4867 46.67 18.7573 46.1566 18.944C45.6433 19.1307 45.0786 19.224 44.4626 19.224C43.6973 19.224 43.0066 19.0933 42.3906 18.832C41.784 18.5613 41.2706 18.1927 40.8506 17.726C40.4306 17.2593 40.1086 16.7133 39.8846 16.088C39.6606 15.4533 39.5486 14.772 39.5486 14.044C39.5486 13.2973 39.6606 12.6067 39.8846 11.972C40.1086 11.328 40.4306 10.768 40.8506 10.292C41.2706 9.816 41.784 9.44267 42.3906 9.172C43.0066 8.90133 43.6973 8.766 44.4626 8.766C45.0133 8.766 45.5313 8.84533 46.0166 9.004C46.5113 9.16267 46.95 9.396 47.3326 9.704C47.7246 10.0027 48.0466 10.376 48.2986 10.824C48.5506 11.272 48.7093 11.7853 48.7746 12.364H46.6466ZM50.4296 9.004H52.6276V19H50.4296V9.004ZM54.6285 9.004H56.8125L60.9845 15.71H61.0125V9.004H63.0705V19H60.8725L56.7145 12.308H56.6865V19H54.6285V9.004ZM72.2995 17.866C71.9075 18.37 71.4735 18.7247 70.9975 18.93C70.5215 19.126 70.0408 19.224 69.5555 19.224C68.7901 19.224 68.0995 19.0933 67.4835 18.832C66.8768 18.5613 66.3635 18.1927 65.9435 17.726C65.5235 17.2593 65.2015 16.7133 64.9775 16.088C64.7535 15.4533 64.6415 14.772 64.6415 14.044C64.6415 13.2973 64.7535 12.6067 64.9775 11.972C65.2015 11.328 65.5235 10.768 65.9435 10.292C66.3635 9.816 66.8768 9.44267 67.4835 9.172C68.0995 8.90133 68.7901 8.766 69.5555 8.766C70.0688 8.766 70.5635 8.84533 71.0395 9.004C71.5248 9.15333 71.9588 9.37733 72.3415 9.676C72.7335 9.97467 73.0555 10.3433 73.3075 10.782C73.5595 11.2207 73.7135 11.7247 73.7695 12.294H71.6695C71.5388 11.734 71.2868 11.314 70.9135 11.034C70.5401 10.754 70.0875 10.614 69.5555 10.614C69.0608 10.614 68.6408 10.712 68.2955 10.908C67.9501 11.0947 67.6701 11.3513 67.4555 11.678C67.2408 11.9953 67.0821 12.3593 66.9795 12.77C66.8861 13.1807 66.8395 13.6053 66.8395 14.044C66.8395 14.464 66.8861 14.8747 66.9795 15.276C67.0821 15.668 67.2408 16.0227 67.4555 16.34C67.6701 16.6573 67.9501 16.914 68.2955 17.11C68.6408 17.2967 69.0608 17.39 69.5555 17.39C70.2835 17.39 70.8435 17.208 71.2355 16.844C71.6368 16.4707 71.8701 15.934 71.9355 15.234H69.7235V13.596H73.9235V19H72.5235L72.2995 17.866Z" fill="#3D3D3D"/>
</svg>
